<svg width="24" height="24" viewBox="0 0 24 24" fill="none" xmlns="http://www.w3.org/2000/svg">
<path d="M13.576 17.2716L8.46599 14.4846C7.97548 14.9715 7.3518 15.3023 6.67358 15.4352C5.99535 15.5682 5.29295 15.4974 4.65491 15.2317C4.01688 14.966 3.47178 14.5174 3.08834 13.9424C2.70489 13.3674 2.50027 12.6917 2.50027 12.0006C2.50027 11.3095 2.70489 10.6338 3.08834 10.0588C3.47178 9.48378 4.01688 9.03516 4.65491 8.7695C5.29295 8.50383 5.99535 8.43302 6.67358 8.56597C7.3518 8.69893 7.97548 9.0297 8.46599 9.5166L13.576 6.7296C13.4007 5.90733 13.5273 5.04946 13.9326 4.31285C14.3378 3.57625 14.9947 3.01013 15.7831 2.71803C16.5714 2.42593 17.4386 2.42737 18.226 2.72209C19.0134 3.0168 19.6684 3.58509 20.0712 4.32304C20.474 5.06098 20.5978 5.91927 20.4198 6.74095C20.2418 7.56263 19.774 8.29279 19.1019 8.7979C18.4298 9.30301 17.5984 9.54932 16.7596 9.4918C15.9208 9.43427 15.1308 9.07674 14.534 8.4846L9.42399 11.2716C9.5262 11.7519 9.5262 12.2483 9.42399 12.7286L14.534 15.5166C15.1308 14.9245 15.9208 14.5669 16.7596 14.5094C17.5984 14.4519 18.4298 14.6982 19.1019 15.2033C19.774 15.7084 20.2418 16.4386 20.4198 17.2602C20.5978 18.0819 20.474 18.9402 20.0712 19.6782C19.6684 20.4161 19.0134 20.9844 18.226 21.2791C17.4386 21.5738 16.5714 21.5753 15.7831 21.2832C14.9947 20.9911 14.3378 20.425 13.9326 19.6883C13.5273 18.9517 13.4007 18.0939 13.576 17.2716Z" fill="white"/>
</svg>
