<svg width="18" height="17" viewBox="0 0 18 17" fill="none" xmlns="http://www.w3.org/2000/svg">
<path d="M3.077 14L0.697 16.38C0.568333 16.5087 0.42 16.541 0.252 16.477C0.0840001 16.413 0 16.2897 0 16.107V1.617C0 1.15633 0.154333 0.772 0.463 0.464C0.771667 0.156 1.15567 0.00133333 1.615 0H16.385C16.845 0 17.229 0.154333 17.537 0.463C17.845 0.771667 17.9993 1.156 18 1.616V12.385C18 12.845 17.8457 13.2293 17.537 13.538C17.2283 13.8467 16.8443 14.0007 16.385 14H3.077ZM9 9.167L10.67 10.183C10.814 10.2737 10.9587 10.2663 11.104 10.161C11.2487 10.055 11.3027 9.913 11.266 9.735L10.823 7.848L12.293 6.585C12.433 6.46033 12.4763 6.31633 12.423 6.153C12.3697 5.98967 12.2517 5.89967 12.069 5.883L10.133 5.708L9.373 3.927C9.30233 3.765 9.178 3.684 9 3.684C8.822 3.684 8.69767 3.765 8.627 3.927L7.867 5.707L5.931 5.883C5.749 5.89967 5.631 5.98967 5.577 6.153C5.523 6.31633 5.56633 6.46033 5.707 6.585L7.177 7.848L6.735 9.734C6.69767 9.91267 6.75133 10.055 6.896 10.161C7.04067 10.267 7.18567 10.2743 7.331 10.183L9 9.167Z" fill="white"/>
</svg>
